<?xml version="1.0" standalone="no"?>
<!DOCTYPE svg PUBLIC "-//W3C//DTD SVG 20010904//EN"
 "http://www.w3.org/TR/2001/REC-SVG-20010904/DTD/svg10.dtd">
<svg version="1.0" xmlns="http://www.w3.org/2000/svg"
 width="64.000000pt" height="64.000000pt" viewBox="0 0 64.000000 64.000000"
 preserveAspectRatio="xMidYMid meet">

<g transform="translate(0.000000,64.000000) scale(0.100000,-0.100000)"
fill="#000000" stroke="none">
<path d="M4 598 c-10 -15 24 -38 56 -38 25 0 27 -4 66 -167 l39 -168 205 0
205 0 32 125 c18 69 31 131 28 138 -3 9 -61 12 -244 12 l-240 0 -11 43 c-6 23
-13 48 -15 55 -6 16 -111 16 -121 0z m576 -155 c0 -10 -4 -34 -9 -53 -6 -19
-15 -54 -21 -77 l-11 -43 -168 0 -167 0 -17 73 c-10 39 -20 82 -23 95 l-6 22
211 0 c194 0 211 -1 211 -17z"/>
<path d="M184 176 c-50 -22 -61 -87 -21 -124 42 -40 107 -25 126 28 24 69 -37
125 -105 96z m56 -51 c18 -21 5 -45 -25 -45 -20 0 -25 5 -25 23 0 39 26 50 50
22z"/>
<path d="M474 176 c-75 -33 -50 -146 32 -146 89 0 105 130 19 153 -11 4 -34 0
-51 -7z m56 -51 c18 -21 5 -45 -25 -45 -20 0 -25 5 -25 23 0 39 26 50 50 22z"/>
</g>
</svg>
