<?xml version="1.0" standalone="no"?>
<!DOCTYPE svg PUBLIC "-//W3C//DTD SVG 20010904//EN"
 "http://www.w3.org/TR/2001/REC-SVG-20010904/DTD/svg10.dtd">
<svg version="1.0" xmlns="http://www.w3.org/2000/svg"
 width="64.000000pt" height="64.000000pt" viewBox="0 0 64.000000 64.000000"
 preserveAspectRatio="xMidYMid meet">

<g transform="translate(0.000000,64.000000) scale(0.100000,-0.100000)"
fill="#000000" stroke="none">
<path d="M332 585 c-11 -8 -22 -31 -26 -53 -12 -78 -96 -159 -137 -134 -10 7
-53 12 -94 12 l-75 0 0 -186 0 -186 82 6 c106 7 92 7 301 0 162 -5 180 -4 198
12 11 10 19 28 17 40 -1 11 3 29 11 38 7 9 13 28 13 44 -1 15 4 38 11 50 9 19
8 29 -6 54 -9 16 -17 40 -17 53 0 40 -35 55 -128 55 -75 0 -83 2 -78 17 15 39
26 105 20 128 -11 45 -60 72 -92 50z m50 -32 c22 -20 23 -63 2 -118 -31 -82
-39 -75 84 -75 83 0 111 -3 115 -13 9 -23 -7 -35 -48 -39 -58 -4 -49 -22 15
-28 47 -4 55 -8 58 -27 3 -20 -1 -22 -55 -25 -69 -4 -73 -21 -6 -28 40 -4 48
-8 48 -25 0 -17 -8 -21 -48 -25 -55 -6 -63 -23 -15 -30 25 -4 34 -11 36 -27
l3 -23 -165 0 c-90 0 -176 4 -190 10 l-26 10 0 137 1 138 42 20 c47 22 82 68
98 129 17 63 21 66 51 39z m-233 -177 c8 -9 11 -60 9 -157 l-3 -144 -62 -3
-63 -3 0 161 0 160 54 0 c33 0 58 -5 65 -14z"/>
<path d="M110 105 c0 -8 5 -15 10 -15 6 0 10 7 10 15 0 8 -4 15 -10 15 -5 0
-10 -7 -10 -15z"/>
</g>
</svg>
