<?xml version="1.0" encoding="UTF-8"?>
<!DOCTYPE svg PUBLIC "-//W3C//DTD SVG 1.1//EN" "http://www.w3.org/Graphics/SVG/1.1/DTD/svg11.dtd">
<svg xmlns="http://www.w3.org/2000/svg" version="1.1" width="64px" height="64px" style="shape-rendering:geometricPrecision; text-rendering:geometricPrecision; image-rendering:optimizeQuality; fill-rule:evenodd; clip-rule:evenodd" xmlns:xlink="http://www.w3.org/1999/xlink">
<g><path style="opacity:0.982" fill="#33ba7c" d="M 23.5,-0.5 C 28.8333,-0.5 34.1667,-0.5 39.5,-0.5C 45.0221,1.26512 50.0221,4.09846 54.5,8C 58.6262,12.5995 61.6262,17.7662 63.5,23.5C 63.5,25.8333 63.5,28.1667 63.5,30.5C 59.8333,27.1667 56.1667,23.8333 52.5,20.5C 50.8556,16.9941 48.1889,15.4941 44.5,16C 38.3501,21.3157 32.3501,26.8157 26.5,32.5C 23.6826,30.1833 21.0159,27.6833 18.5,25C 15.3578,25.0878 12.8578,26.5878 11,29.5C 10.3333,30.8333 10.3333,32.1667 11,33.5C 15.7021,38.3699 20.5354,43.0366 25.5,47.5C 30.1667,52.5 34.8333,57.5 39.5,62.5C 39.5,62.8333 39.5,63.1667 39.5,63.5C 34.1667,63.5 28.8333,63.5 23.5,63.5C 17.9779,61.7349 12.9779,58.9015 8.5,55C 4.37379,50.4005 1.37379,45.2338 -0.5,39.5C -0.5,34.1667 -0.5,28.8333 -0.5,23.5C 1.26512,17.9779 4.09846,12.9779 8,8.5C 12.5995,4.37379 17.7662,1.37379 23.5,-0.5 Z"/></g>
<g><path style="opacity:1" fill="#f9fcfb" d="M 52.5,20.5 C 52.5086,22.3084 52.0086,23.9751 51,25.5C 43.8333,32.6667 36.6667,39.8333 29.5,47C 28.2068,47.49 26.8734,47.6567 25.5,47.5C 20.5354,43.0366 15.7021,38.3699 11,33.5C 10.3333,32.1667 10.3333,30.8333 11,29.5C 12.8578,26.5878 15.3578,25.0878 18.5,25C 21.0159,27.6833 23.6826,30.1833 26.5,32.5C 32.3501,26.8157 38.3501,21.3157 44.5,16C 48.1889,15.4941 50.8556,16.9941 52.5,20.5 Z"/></g>
<g><path style="opacity:1" fill="#0ca06e" d="M 52.5,20.5 C 56.1667,23.8333 59.8333,27.1667 63.5,30.5C 63.5,33.5 63.5,36.5 63.5,39.5C 60.6369,48.2039 55.3035,55.0372 47.5,60C 44.978,61.3409 42.3113,62.1743 39.5,62.5C 34.8333,57.5 30.1667,52.5 25.5,47.5C 26.8734,47.6567 28.2068,47.49 29.5,47C 36.6667,39.8333 43.8333,32.6667 51,25.5C 52.0086,23.9751 52.5086,22.3084 52.5,20.5 Z"/></g>
</svg>
